<svg width="58" height="58" xmlns="http://www.w3.org/2000/svg" viewBox="0 0 100 100" preserveAspectRatio="xMidYMid" class="uil-default"><path fill="none" class="bk" d="M0 0h100v100H0z"/><rect x="46.5" y="40" width="7" height="20" rx="5" ry="5" fill="#272b49" transform="translate(0 -30)"><animate attributeName="opacity" from="1" to="0" dur="0.7s" begin="0s" repeatCount="indefinite"/></rect><rect x="46.5" y="40" width="7" height="20" rx="5" ry="5" fill="#272b49" transform="rotate(30 105.98 65)"><animate attributeName="opacity" from="1" to="0" dur="0.7s" begin="0.05833333333333333s" repeatCount="indefinite"/></rect><rect x="46.5" y="40" width="7" height="20" rx="5" ry="5" fill="#272b49" transform="rotate(60 75.98 65)"><animate attributeName="opacity" from="1" to="0" dur="0.7s" begin="0.11666666666666665s" repeatCount="indefinite"/></rect><rect x="46.5" y="40" width="7" height="20" rx="5" ry="5" fill="#272b49" transform="rotate(90 65 65)"><animate attributeName="opacity" from="1" to="0" dur="0.7s" begin="0.17499999999999996s" repeatCount="indefinite"/></rect><rect x="46.5" y="40" width="7" height="20" rx="5" ry="5" fill="#272b49" transform="rotate(120 58.66 65)"><animate attributeName="opacity" from="1" to="0" dur="0.7s" begin="0.2333333333333333s" repeatCount="indefinite"/></rect><rect x="46.5" y="40" width="7" height="20" rx="5" ry="5" fill="#272b49" transform="rotate(150 54.02 65)"><animate attributeName="opacity" from="1" to="0" dur="0.7s" begin="0.2916666666666667s" repeatCount="indefinite"/></rect><rect x="46.5" y="40" width="7" height="20" rx="5" ry="5" fill="#272b49" transform="rotate(180 50 65)"><animate attributeName="opacity" from="1" to="0" dur="0.7s" begin="0.3499999999999999s" repeatCount="indefinite"/></rect><rect x="46.5" y="40" width="7" height="20" rx="5" ry="5" fill="#272b49" transform="rotate(-150 45.98 65)"><animate attributeName="opacity" from="1" to="0" dur="0.7s" begin="0.40833333333333327s" repeatCount="indefinite"/></rect><rect x="46.5" y="40" width="7" height="20" rx="5" ry="5" fill="#272b49" transform="rotate(-120 41.34 65)"><animate attributeName="opacity" from="1" to="0" dur="0.7s" begin="0.4666666666666666s" repeatCount="indefinite"/></rect><rect x="46.5" y="40" width="7" height="20" rx="5" ry="5" fill="#272b49" transform="rotate(-90 35 65)"><animate attributeName="opacity" from="1" to="0" dur="0.7s" begin="0.525s" repeatCount="indefinite"/></rect><rect x="46.5" y="40" width="7" height="20" rx="5" ry="5" fill="#272b49" transform="rotate(-60 24.02 65)"><animate attributeName="opacity" from="1" to="0" dur="0.7s" begin="0.5833333333333334s" repeatCount="indefinite"/></rect><rect x="46.5" y="40" width="7" height="20" rx="5" ry="5" fill="#272b49" transform="rotate(-30 -5.98 65)"><animate attributeName="opacity" from="1" to="0" dur="0.7s" begin="0.6416666666666666s" repeatCount="indefinite"/></rect></svg>