<svg id="Ebene_1" data-name="Ebene 1" xmlns="http://www.w3.org/2000/svg" viewBox="0 0 389 172"><defs><style>.cls-1{fill:#d40e14;}</style></defs><title>TUI_3CPM</title><path class="cls-1" d="M387.91,148a2.91,2.91,0,0,0,.83-1.06,4.64,4.64,0,0,0,.26-1.77V87.28a4.84,4.84,0,0,0-.26-1.8,2.52,2.52,0,0,0-.83-1q-1.32-1-6.1-1t-6.2,1a2.51,2.51,0,0,0-.83,1,4.81,4.81,0,0,0-.26,1.8v57.9a3.47,3.47,0,0,0,1.09,2.84q1.32,1,6.2,1T387.91,148Zm-43.19.33a22.06,22.06,0,0,0,8.16-4.73,18.26,18.26,0,0,0,4.68-7.17,26.41,26.41,0,0,0,1.49-9V87.28a3.39,3.39,0,0,0-1-2.84q-1.42-1-6.1-1-4.87,0-6.2,1a2.24,2.24,0,0,0-.85,1,5.25,5.25,0,0,0-.24,1.8v40a15.29,15.29,0,0,1-.83,4.85,7.61,7.61,0,0,1-3.62,4.12,14.54,14.54,0,0,1-7.38,1.63,17.07,17.07,0,0,1-5.42-.76,9.42,9.42,0,0,1-3.67-2.15,8.4,8.4,0,0,1-2.08-3.36,13.46,13.46,0,0,1-.66-4.33v-40a3.39,3.39,0,0,0-1-2.84q-1.42-1-6.1-1-4.87,0-6.2,1a2.24,2.24,0,0,0-.85,1,5.25,5.25,0,0,0-.24,1.8v40.16a26.43,26.43,0,0,0,1.49,9,18.26,18.26,0,0,0,4.68,7.17,22.06,22.06,0,0,0,8.16,4.73A42.58,42.58,0,0,0,344.72,148.35ZM274,148a2.68,2.68,0,0,0,.8-1.06,5,5,0,0,0,.24-1.77V95.79h14.43a9,9,0,0,0,2.6-.31,2.65,2.65,0,0,0,1.56-1.35,11.88,11.88,0,0,0,1-3.55,24.77,24.77,0,0,0,.35-3.64,6,6,0,0,0-.19-1.73,1.82,1.82,0,0,0-.76-1,3,3,0,0,0-1-.35,11.5,11.5,0,0,0-1.89-.12H246.14a9,9,0,0,0-2.6.31A2.66,2.66,0,0,0,242,85.43a10.21,10.21,0,0,0-1,3.12,22.36,22.36,0,0,0-.35,4,6.19,6.19,0,0,0,.19,1.77,1.76,1.76,0,0,0,.8,1,6,6,0,0,0,2.89.47h16.08v49.39a3.31,3.31,0,0,0,1.09,2.84q1.32,1,6.2,1Q272.53,149.06,274,148Z"/><path class="cls-1" d="M10.6,48.32H61.16c5,0,8.69,1.57,10.16,8.61,1.64,7.83,1,13.28-7.85,13.9L47.6,72c11.68,73.82,80,97.88,117.17,18.37,6.16-13.16,8.17-15.55,14.91-13.88,9.14,2.27,10.39,7,6,20.23C153.57,194.7,45.5,204.53,24.3,73.64l-12.89.93C0.91,75.32.5,66.47,0.5,61.55,0.5,51.81,4.11,48.32,10.6,48.32Z"/><circle class="cls-1" cx="194.42" cy="19.69" r="18.76"/></svg>